<svg width="32" height="33" viewBox="0 0 32 33" fill="none" xmlns="http://www.w3.org/2000/svg">
<path d="M22.6667 24.5C23.374 24.5 24.0522 24.7809 24.5523 25.281C25.0524 25.7811 25.3334 26.4594 25.3334 27.1666C25.3334 27.8739 25.0524 28.5521 24.5523 29.0522C24.0522 29.5523 23.374 29.8333 22.6667 29.8333C21.9595 29.8333 21.2812 29.5523 20.7811 29.0522C20.281 28.5521 20 27.8739 20 27.1666C20 25.6866 21.1867 24.5 22.6667 24.5ZM1.33337 3.16663H5.69337L6.94671 5.83329H26.6667C27.0203 5.83329 27.3595 5.97377 27.6095 6.22382C27.8596 6.47387 28 6.813 28 7.16663C28 7.39329 27.9334 7.61996 27.84 7.83329L23.0667 16.46C22.6134 17.2733 21.7334 17.8333 20.7334 17.8333H10.8L9.60004 20.0066L9.56004 20.1666C9.56004 20.255 9.59516 20.3398 9.65767 20.4023C9.72018 20.4648 9.80497 20.5 9.89337 20.5H25.3334V23.1666H9.33337C8.62613 23.1666 7.94785 22.8857 7.44776 22.3856C6.94766 21.8855 6.66671 21.2072 6.66671 20.5C6.66671 20.0333 6.78671 19.5933 6.98671 19.22L8.80004 15.9533L4.00004 5.83329H1.33337V3.16663ZM9.33337 24.5C10.0406 24.5 10.7189 24.7809 11.219 25.281C11.7191 25.7811 12 26.4594 12 27.1666C12 27.8739 11.7191 28.5521 11.219 29.0522C10.7189 29.5523 10.0406 29.8333 9.33337 29.8333C8.62613 29.8333 7.94785 29.5523 7.44776 29.0522C6.94766 28.5521 6.66671 27.8739 6.66671 27.1666C6.66671 25.6866 7.85337 24.5 9.33337 24.5ZM21.3334 15.1666L25.04 8.49996H8.18671L11.3334 15.1666H21.3334Z" fill="#353535"/>
</svg>
